HIERARCHY
ROOT body_world
{
	OFFSET 0.00000 0.00000 0.00000
	CHANNELS 6 Xposition Yposition Zposition Zrotation Xrotation Yrotation
	JOINT b_root
	{
		OFFSET 0.00000 91.50000 0.00000
		CHANNELS 6 Xposition Yposition Zposition Zrotation Xrotation Yrotation
		JOINT b_spine0
		{
			OFFSET 0.00000 2.52216 -2.92039
			CHANNELS 6 Xposition Yposition Zposition Zrotation Xrotation Yrotation
			JOINT b_spine1
			{
				OFFSET 0.00000 10.88420 2.18712
				CHANNELS 6 Xposition Yposition Zposition Zrotation Xrotation Yrotation
				JOINT b_spine2
				{
					OFFSET 0.00000 10.37060 -4.27670
					CHANNELS 6 Xposition Yposition Zposition Zrotation Xrotation Yrotation
					JOINT b_spine3
					{
						OFFSET 0.00000 18.40230 -1.77629
						CHANNELS 6 Xposition Yposition Zposition Zrotation Xrotation Yrotation
						JOINT b_neck0
						{
							OFFSET 0.00000 12.77480 3.30221
							CHANNELS 6 Xposition Yposition Zposition Zrotation Xrotation Yrotation
							JOINT b_head
							{
								OFFSET 0.00000 6.34510 3.18585
								CHANNELS 6 Xposition Yposition Zposition Zrotation Xrotation Yrotation
								JOINT b_head_null
								{
									OFFSET 0.00000 19.88100 4.10307
									CHANNELS 6 Xposition Yposition Zposition Zrotation Xrotation Yrotation
									End Site
									{
										OFFSET 0.00000 0.00000 0.00000
									}
								}
								JOINT b_l_eye
								{
									OFFSET 3.40000 7.00765 8.59377
									CHANNELS 6 Xposition Yposition Zposition Zrotation Xrotation Yrotation
									End Site
									{
										OFFSET 0.02382 -0.23927 1.68141
									}
								}
								JOINT b_r_eye
								{
									OFFSET -3.30000 6.98743 8.69171
									CHANNELS 6 Xposition Yposition Zposition Zrotation Xrotation Yrotation
									End Site
									{
										OFFSET 0.02085 -0.23926 1.68137
									}
								}
								JOINT b_jaw
								{
									OFFSET 0.00000 5.04600 2.26669
									CHANNELS 6 Xposition Yposition Zposition Zrotation Xrotation Yrotation
									JOINT b_jaw_null
									{
										OFFSET 0.00000 -8.86421 6.07830
										CHANNELS 6 Xposition Yposition Zposition Zrotation Xrotation Yrotation
										End Site
										{
											OFFSET 0.00000 0.00000 0.00000
										}
									}
									JOINT b_teeth
									{
										OFFSET 0.10000 -6.13996 2.92418
										CHANNELS 6 Xposition Yposition Zposition Zrotation Xrotation Yrotation
										End Site
										{
											OFFSET 0.00000 0.00000 0.00000
										}
									}
									JOINT b_tongue0
									{
										OFFSET 0.10000 -6.13996 2.92418
										CHANNELS 6 Xposition Yposition Zposition Zrotation Xrotation Yrotation
										JOINT b_tongue1
										{
											OFFSET 0.00000 -0.12728 -1.74178
											CHANNELS 6 Xposition Yposition Zposition Zrotation Xrotation Yrotation
											JOINT b_tongue2
											{
												OFFSET 0.01033 0.78454 2.48080
												CHANNELS 6 Xposition Yposition Zposition Zrotation Xrotation Yrotation
												JOINT b_tongue3
												{
													OFFSET 0.02113 -0.48229 2.14871
													CHANNELS 6 Xposition Yposition Zposition Zrotation Xrotation Yrotation
													JOINT b_tongue4
													{
														OFFSET 0.00143 -0.17828 0.47772
														CHANNELS 6 Xposition Yposition Zposition Zrotation Xrotation Yrotation
														JOINT b_l_tongue4_1
														{
															OFFSET 0.20148 -0.09575 -0.01540
															CHANNELS 6 Xposition Yposition Zposition Zrotation Xrotation Yrotation
															End Site
															{
																OFFSET 0.22487 -0.07658 -0.01600
															}
														}
														JOINT b_r_tongue4_1
														{
															OFFSET -0.19848 -0.10168 -0.01642
															CHANNELS 6 Xposition Yposition Zposition Zrotation Xrotation Yrotation
															End Site
															{
																OFFSET -0.22507 -0.08324 -0.01714
															}
														}
													}
													JOINT b_l_tongue3_1
													{
														OFFSET 0.20148 -0.09575 -0.01540
														CHANNELS 6 Xposition Yposition Zposition Zrotation Xrotation Yrotation
														End Site
														{
															OFFSET 0.43655 -0.07345 -0.01547
														}
													}
													JOINT b_r_tongue3_1
													{
														OFFSET -0.19848 -0.10168 -0.01642
														CHANNELS 6 Xposition Yposition Zposition Zrotation Xrotation Yrotation
														End Site
														{
															OFFSET -0.43675 -0.08638 -0.01768
														}
													}
												}
												JOINT b_l_tongue2_1
												{
													OFFSET 0.20163 -0.09487 -0.01862
													CHANNELS 6 Xposition Yposition Zposition Zrotation Xrotation Yrotation
													End Site
													{
														OFFSET 0.64962 -0.06809 -0.02138
													}
												}
												JOINT b_r_tongue2_1
												{
													OFFSET -0.19830 -0.10203 -0.01630
													CHANNELS 6 Xposition Yposition Zposition Zrotation Xrotation Yrotation
													End Site
													{
														OFFSET -0.64984 -0.09177 -0.01160
													}
												}
											}
											JOINT b_r_tongue1_1
											{
												OFFSET -0.19765 -0.09820 0.03591
												CHANNELS 6 Xposition Yposition Zposition Zrotation Xrotation Yrotation
												End Site
												{
													OFFSET -0.75924 -0.09552 -0.00843
												}
											}
											JOINT b_l_tongue1_1
											{
												OFFSET 0.20224 -0.08999 0.03165
												CHANNELS 6 Xposition Yposition Zposition Zrotation Xrotation Yrotation
												End Site
												{
													OFFSET 0.75910 -0.06432 -0.02462
												}
											}
										}
									}
								}
							}
						}
						JOINT b_r_shoulder
						{
							OFFSET -2.80000 7.18393 9.08687
							CHANNELS 6 Xposition Yposition Zposition Zrotation Xrotation Yrotation
							JOINT p_r_scap
							{
								OFFSET -16.05540 -0.96660 -5.09514
								CHANNELS 6 Xposition Yposition Zposition Zrotation Xrotation Yrotation
								JOINT b_r_arm
								{
									OFFSET -0.37421 -4.11697 -0.50050
									CHANNELS 6 Xposition Yposition Zposition Zrotation Xrotation Yrotation
									JOINT b_r_arm_twist
									{
										OFFSET 0.00000 0.00000 0.00000
										CHANNELS 6 Xposition Yposition Zposition Zrotation Xrotation Yrotation
										JOINT b_r_forearm
										{
											OFFSET -25.58110 -0.71761 -0.67246
											CHANNELS 6 Xposition Yposition Zposition Zrotation Xrotation Yrotation
											JOINT b_r_wrist_twist
											{
												OFFSET -24.78170 -0.69519 -0.65144
												CHANNELS 6 Xposition Yposition Zposition Zrotation Xrotation Yrotation
												JOINT b_r_wrist
												{
													OFFSET -1.98009 -0.26602 1.88639
													CHANNELS 6 Xposition Yposition Zposition Zrotation Xrotation Yrotation
													JOINT b_r_index1
													{
														OFFSET -8.95160 -0.46243 2.31625
														CHANNELS 6 Xposition Yposition Zposition Zrotation Xrotation Yrotation
														JOINT b_r_index2
														{
															OFFSET -4.49994 -0.01610 0.01724
															CHANNELS 6 Xposition Yposition Zposition Zrotation Xrotation Yrotation
															JOINT b_r_index3
															{
																OFFSET -2.59996 -0.00930 0.00996
																CHANNELS 6 Xposition Yposition Zposition Zrotation Xrotation Yrotation
																End Site
																{
																	OFFSET -1.25012 -0.00447 0.00479
																}
															}
														}
													}
													JOINT b_r_ring1
													{
														OFFSET -7.97271 -0.33432 -2.08664
														CHANNELS 6 Xposition Yposition Zposition Zrotation Xrotation Yrotation
														JOINT b_r_ring2
														{
															OFFSET -4.49994 -0.01610 0.01724
															CHANNELS 6 Xposition Yposition Zposition Zrotation Xrotation Yrotation
															JOINT b_r_ring3
															{
																OFFSET -2.99996 -0.01073 0.01149
																CHANNELS 6 Xposition Yposition Zposition Zrotation Xrotation Yrotation
																End Site
																{
																	OFFSET -1.26270 -0.00452 0.00484
																}
															}
														}
													}
													JOINT b_r_middle1
													{
														OFFSET -8.72799 0.02962 0.03636
														CHANNELS 6 Xposition Yposition Zposition Zrotation Xrotation Yrotation
														JOINT b_r_middle2
														{
															OFFSET -5.09993 -0.01825 0.01953
															CHANNELS 6 Xposition Yposition Zposition Zrotation Xrotation Yrotation
															JOINT b_r_middle3
															{
																OFFSET -3.09996 -0.01109 0.01187
																CHANNELS 6 Xposition Yposition Zposition Zrotation Xrotation Yrotation
																End Site
																{
																	OFFSET -1.37856 -0.00493 0.00528
																}
															}
														}
													}
													JOINT b_r_pinky1
													{
														OFFSET -7.05086 -1.12271 -4.03050
														CHANNELS 6 Xposition Yposition Zposition Zrotation Xrotation Yrotation
														JOINT b_r_pinky2
														{
															OFFSET -3.39995 -0.01216 0.01302
															CHANNELS 6 Xposition Yposition Zposition Zrotation Xrotation Yrotation
															JOINT b_r_pinky3
															{
																OFFSET -2.09997 -0.00751 0.00804
																CHANNELS 6 Xposition Yposition Zposition Zrotation Xrotation Yrotation
																End Site
																{
																	OFFSET -1.30944 -0.00469 0.00502
																}
															}
														}
													}
													JOINT b_r_thumb0
													{
														OFFSET -1.02679 -0.35312 0.78804
														CHANNELS 6 Xposition Yposition Zposition Zrotation Xrotation Yrotation
														JOINT b_r_thumb1
														{
															OFFSET -1.04860 -2.13714 1.65622
															CHANNELS 6 Xposition Yposition Zposition Zrotation Xrotation Yrotation
															JOINT b_r_thumb2
															{
																OFFSET -4.19196 -0.71130 1.47361
																CHANNELS 6 Xposition Yposition Zposition Zrotation Xrotation Yrotation
																JOINT b_r_thumb3
																{
																	OFFSET -3.79307 -0.05136 0.22358
																	CHANNELS 6 Xposition Yposition Zposition Zrotation Xrotation Yrotation
																	End Site
																	{
																		OFFSET -1.92166 -0.02602 0.11327
																	}
																}
															}
														}
													}
												}
											}
										}
									}
								}
							}
						}
						JOINT b_l_shoulder
						{
							OFFSET 2.80000 7.18393 9.08687
							CHANNELS 6 Xposition Yposition Zposition Zrotation Xrotation Yrotation
							JOINT p_l_delt
							{
								OFFSET 14.83770 0.12736 -4.10440
								CHANNELS 6 Xposition Yposition Zposition Zrotation Xrotation Yrotation
								End Site
								{
									OFFSET 0.00000 0.00000 0.00000
								}
							}
							JOINT p_l_scap
							{
								OFFSET 16.05540 -0.98247 -5.09210
								CHANNELS 6 Xposition Yposition Zposition Zrotation Xrotation Yrotation
								JOINT b_l_arm
								{
									OFFSET 0.31067 -4.17648 -0.50051
									CHANNELS 6 Xposition Yposition Zposition Zrotation Xrotation Yrotation
									JOINT b_l_arm_twist
									{
										OFFSET 0.00000 0.00000 0.00000
										CHANNELS 6 Xposition Yposition Zposition Zrotation Xrotation Yrotation
										JOINT b_l_forearm
										{
											OFFSET 25.58390 -0.59335 -0.68858
											CHANNELS 6 Xposition Yposition Zposition Zrotation Xrotation Yrotation
											JOINT b_l_wrist_twist
											{
												OFFSET 24.78440 -0.57480 -0.66706
												CHANNELS 6 Xposition Yposition Zposition Zrotation Xrotation Yrotation
												JOINT b_l_wrist
												{
													OFFSET 2.06093 0.07483 1.81576
													CHANNELS 6 Xposition Yposition Zposition Zrotation Xrotation Yrotation
													JOINT b_l_thumb0
													{
														OFFSET 1.01479 -0.37734 0.79235
														CHANNELS 6 Xposition Yposition Zposition Zrotation Xrotation Yrotation
														JOINT b_l_thumb1
														{
															OFFSET 0.98657 -2.15795 1.66732
															CHANNELS 6 Xposition Yposition Zposition Zrotation Xrotation Yrotation
															JOINT b_l_thumb2
															{
																OFFSET 4.16734 -0.81714 1.48847
																CHANNELS 6 Xposition Yposition Zposition Zrotation Xrotation Yrotation
																JOINT b_l_thumb3
																{
																	OFFSET 3.78971 -0.15162 0.23480
																	CHANNELS 6 Xposition Yposition Zposition Zrotation Xrotation Yrotation
																	End Site
																	{
																		OFFSET 1.91996 -0.07681 0.11896
																	}
																}
															}
														}
													}
													JOINT b_l_index1
													{
														OFFSET 8.92954 -0.69203 2.34400
														CHANNELS 6 Xposition Yposition Zposition Zrotation Xrotation Yrotation
														JOINT b_l_index2
														{
															OFFSET 4.49784 -0.13601 0.03038
															CHANNELS 6 Xposition Yposition Zposition Zrotation Xrotation Yrotation
															JOINT b_l_index3
															{
																OFFSET 2.59875 -0.07859 0.01755
																CHANNELS 6 Xposition Yposition Zposition Zrotation Xrotation Yrotation
																End Site
																{
																	OFFSET 1.24954 -0.03779 0.00844
																}
															}
														}
													}
													JOINT b_l_middle1
													{
														OFFSET 8.72554 -0.20297 0.06163
														CHANNELS 6 Xposition Yposition Zposition Zrotation Xrotation Yrotation
														JOINT b_l_middle2
														{
															OFFSET 5.09755 -0.15415 0.03443
															CHANNELS 6 Xposition Yposition Zposition Zrotation Xrotation Yrotation
															JOINT b_l_middle3
															{
																OFFSET 3.09851 -0.09370 0.02093
																CHANNELS 6 Xposition Yposition Zposition Zrotation Xrotation Yrotation
																End Site
																{
																	OFFSET 1.37792 -0.04167 0.00931
																}
															}
														}
													}
													JOINT b_l_ring1
													{
														OFFSET 7.96678 -0.55481 -2.06217
														CHANNELS 6 Xposition Yposition Zposition Zrotation Xrotation Yrotation
														JOINT b_l_ring2
														{
															OFFSET 4.49784 -0.13601 0.03038
															CHANNELS 6 Xposition Yposition Zposition Zrotation Xrotation Yrotation
															JOINT b_l_ring3
															{
																OFFSET 2.99856 -0.09068 0.02025
																CHANNELS 6 Xposition Yposition Zposition Zrotation Xrotation Yrotation
																End Site
																{
																	OFFSET 1.26211 -0.03817 0.00853
																}
															}
														}
													}
													JOINT b_l_pinky1
													{
														OFFSET 7.02968 -1.32581 -4.00572
														CHANNELS 6 Xposition Yposition Zposition Zrotation Xrotation Yrotation
														JOINT b_l_pinky2
														{
															OFFSET 3.39837 -0.10277 0.02296
															CHANNELS 6 Xposition Yposition Zposition Zrotation Xrotation Yrotation
															JOINT b_l_pinky3
															{
																OFFSET 2.09899 -0.06347 0.01418
																CHANNELS 6 Xposition Yposition Zposition Zrotation Xrotation Yrotation
																End Site
																{
																	OFFSET 1.30883 -0.03958 0.00884
																}
															}
														}
													}
												}
											}
										}
									}
								}
							}
						}
					}
					JOINT p_navel
					{
						OFFSET 0.00000 -11.87180 1.81975
						CHANNELS 6 Xposition Yposition Zposition Zrotation Xrotation Yrotation
						End Site
						{
							OFFSET 0.00000 0.00000 0.00000
						}
					}
				}
			}
		}
		JOINT b_r_upleg
		{
			OFFSET -8.70000 -7.18117 -1.31560
			CHANNELS 6 Xposition Yposition Zposition Zrotation Xrotation Yrotation
			JOINT b_r_leg
			{
				OFFSET 0.00000 -37.29980 0.16253
				CHANNELS 6 Xposition Yposition Zposition Zrotation Xrotation Yrotation
				JOINT b_r_foot_twist
				{
					OFFSET 0.00000 -39.87130 -3.20568
					CHANNELS 6 Xposition Yposition Zposition Zrotation Xrotation Yrotation
					JOINT b_r_foot
					{
						OFFSET 0.00000 0.00000 0.00000
						CHANNELS 6 Xposition Yposition Zposition Zrotation Xrotation Yrotation
						End Site
						{
							OFFSET 0.09399 -6.47053 16.93280
						}
					}
				}
			}
		}
		JOINT b_l_upleg
		{
			OFFSET 8.70000 -7.18117 -1.31560
			CHANNELS 6 Xposition Yposition Zposition Zrotation Xrotation Yrotation
			JOINT b_l_leg
			{
				OFFSET 0.00000 -37.19910 0.26182
				CHANNELS 6 Xposition Yposition Zposition Zrotation Xrotation Yrotation
				JOINT b_l_foot_twist
				{
					OFFSET 0.00000 -39.87130 -3.20568
					CHANNELS 6 Xposition Yposition Zposition Zrotation Xrotation Yrotation
					JOINT b_l_foot
					{
						OFFSET 0.00000 0.00000 0.00000
						CHANNELS 6 Xposition Yposition Zposition Zrotation Xrotation Yrotation
						End Site
						{
							OFFSET -0.03062 -6.08018 15.88790
						}
					}
				}
			}
		}
	}
}
MOTION
Frames: 3
Frame Time: 0.03333
5.30 -0.00 -0.88 0.00 0.00 0.00 0.00 88.10 0.00 2.72 -12.39 4.95 0.00 2.52 -2.92 -0.63 12.57 -0.46 0.00 10.88 2.19 -0.68 12.57 -0.39 0.00 10.37 -4.28 2.42 7.59 -0.59 0.00 18.40 -1.78 2.42 7.59 -0.59 0.00 12.77 3.30 1.08 5.85 -0.35 0.00 6.35 3.19 -5.20 -43.26 -3.21 0.00 19.88 4.10 0.00 -0.00 -0.00 3.40 7.01 8.59 0.00 0.01 0.00 -3.30 6.99 8.69 0.00 0.00 -0.00 0.00 5.05 2.27 0.00 -0.00 0.00 0.00 -8.86 6.08 -0.00 0.00 -0.00 0.10 -6.14 2.92 0.00 0.00 -0.00 0.10 -6.14 2.92 0.00 -0.00 0.00 0.00 -0.13 -1.74 -0.00 -0.00 -0.01 0.01 0.78 2.48 0.00 0.00 -0.00 0.02 -0.48 2.15 0.00 -0.00 0.00 0.00 -0.18 0.48 -0.00 -0.00 0.00 0.20 -0.10 -0.02 -0.00 -0.00 -0.00 -0.20 -0.10 -0.02 0.00 0.00 0.00 0.20 -0.10 -0.02 -0.00 0.00 -0.00 -0.20 -0.10 -0.02 0.01 -0.00 0.00 0.20 -0.09 -0.02 0.00 -0.00 -0.00 -0.20 -0.10 -0.02 0.00 -0.00 -0.00 -0.20 -0.10 0.04 0.00 0.01 0.00 0.20 -0.09 0.03 -0.01 -0.00 -0.00 -2.80 7.18 9.09 -15.24 -2.21 8.11 -16.06 -0.97 -5.10 -0.00 0.00 -0.00 -0.37 -4.12 -0.50 64.89 34.46 53.41 0.00 0.00 0.00 0.40 17.69 0.45 -25.58 -0.72 -0.67 -20.51 -36.47 138.70 -24.78 -0.70 -0.65 -3.91 -72.59 -10.65 -1.98 -0.27 1.89 -70.46 43.00 68.26 -8.95 -0.46 2.32 9.31 -4.39 -9.42 -4.50 -0.02 0.02 12.51 1.08 -0.14 -2.60 -0.01 0.01 7.88 0.71 -0.05 -7.97 -0.33 -2.09 13.69 -12.04 -4.86 -4.50 -0.02 0.02 8.46 -0.78 0.11 -3.00 -0.01 0.01 8.58 -0.77 0.04 -8.73 0.03 0.04 13.91 0.04 -6.16 -5.10 -0.02 0.02 7.45 0.00 0.00 -3.10 -0.01 0.01 9.81 0.00 -0.00 -7.05 -1.12 -4.03 6.56 -18.62 -7.10 -3.40 -0.01 0.01 14.66 -3.30 0.42 -2.10 -0.01 0.01 9.68 -2.15 0.19 -1.03 -0.35 0.79 -0.00 -0.00 0.00 -1.05 -2.14 1.66 1.74 34.76 13.79 -4.19 -0.71 1.47 -4.75 -2.39 -9.01 -3.79 -0.05 0.22 8.23 1.64 -5.10 2.80 7.18 9.09 9.33 -0.10 -0.62 14.84 0.13 -4.10 0.00 0.00 -0.00 16.06 -0.98 -5.09 -0.00 0.02 0.00 0.31 -4.18 -0.50 -73.07 34.56 -49.51 0.00 0.00 0.00 -0.67 29.58 -0.53 25.58 -0.59 -0.69 3.46 -30.77 -141.06 24.78 -0.57 -0.67 1.25 -51.09 6.49 2.06 0.07 1.82 30.25 45.84 -42.16 1.01 -0.38 0.79 -0.01 -0.01 0.00 0.99 -2.16 1.67 -3.48 36.63 -12.12 4.17 -0.82 1.49 2.18 -1.54 8.85 3.79 -0.15 0.23 -8.50 1.70 5.27 8.93 -0.69 2.34 -5.42 -2.14 5.85 4.50 -0.14 0.03 -6.72 0.60 0.04 2.60 -0.08 0.02 -6.16 0.55 0.03 8.73 -0.20 0.06 -6.41 0.00 6.76 5.10 -0.15 0.03 -2.96 -0.00 0.00 3.10 -0.09 0.02 -8.35 -0.00 0.00 7.97 -0.55 -2.06 -3.92 -9.32 7.66 4.50 -0.14 0.03 -6.78 -0.65 -0.01 3.00 -0.09 0.02 -6.90 -0.62 -0.04 7.03 -1.33 -4.01 4.85 -13.25 12.76 3.40 -0.10 0.02 -12.20 -2.79 -0.29 2.10 -0.06 0.01 -10.14 -2.25 -0.21 0.00 -11.87 1.82 -0.00 -0.00 -0.00 -8.70 -7.18 -1.32 -7.92 -0.14 -8.64 0.00 -37.30 0.16 -0.02 27.33 -0.24 0.00 -39.87 -3.21 0.00 -0.00 -0.00 0.00 0.00 0.00 13.48 -13.39 1.56 8.70 -7.18 -1.32 -1.61 -2.94 -4.51 0.00 -37.20 0.26 0.01 24.48 0.08 0.00 -39.87 -3.21 -0.00 0.01 0.00 0.00 0.00 0.00 -6.03 -14.15 -0.30
5.37 -0.00 -0.82 0.00 0.00 0.00 0.00 88.11 0.00 2.71 -12.37 4.97 0.00 2.52 -2.92 -0.64 12.57 -0.46 0.00 10.88 2.19 -0.69 12.57 -0.39 0.00 10.37 -4.28 2.41 7.52 -0.59 0.00 18.40 -1.78 2.41 7.52 -0.59 0.00 12.77 3.30 1.01 5.72 -0.33 0.00 6.35 3.19 -5.25 -43.45 -3.20 0.00 19.88 4.10 0.00 -0.00 -0.00 3.40 7.01 8.59 0.00 0.01 0.00 -3.30 6.99 8.69 0.00 0.00 -0.00 0.00 5.05 2.27 0.00 -0.00 0.00 0.00 -8.86 6.08 -0.00 0.00 -0.00 0.10 -6.14 2.92 0.00 0.00 -0.00 0.10 -6.14 2.92 -0.00 -0.00 0.00 0.00 -0.13 -1.74 -0.00 -0.00 -0.01 0.01 0.78 2.48 0.00 0.00 -0.00 0.02 -0.48 2.15 0.00 -0.00 0.00 0.00 -0.18 0.48 -0.00 -0.00 0.00 0.20 -0.10 -0.02 -0.00 -0.00 -0.00 -0.20 -0.10 -0.02 0.00 0.00 0.00 0.20 -0.10 -0.02 -0.00 0.00 -0.00 -0.20 -0.10 -0.02 0.01 -0.00 0.00 0.20 -0.09 -0.02 0.00 -0.00 -0.00 -0.20 -0.10 -0.02 0.00 -0.00 -0.00 -0.20 -0.10 0.04 0.00 0.01 0.00 0.20 -0.09 0.03 -0.01 -0.00 -0.00 -2.80 7.18 9.09 -15.39 -2.27 8.21 -16.06 -0.97 -5.10 -0.00 0.00 -0.00 -0.37 -4.12 -0.50 65.13 34.28 53.36 0.00 0.00 0.00 0.40 17.69 0.45 -25.58 -0.72 -0.67 -20.62 -36.51 138.69 -24.78 -0.70 -0.65 -3.91 -72.59 -10.65 -1.98 -0.27 1.89 -70.41 43.10 68.14 -8.95 -0.46 2.32 9.17 -4.39 -9.42 -4.50 -0.02 0.02 12.45 1.08 -0.13 -2.60 -0.01 0.01 7.86 0.71 -0.05 -7.97 -0.33 -2.09 13.52 -12.02 -4.91 -4.50 -0.02 0.02 8.42 -0.77 0.11 -3.00 -0.01 0.01 8.56 -0.77 0.04 -8.73 0.03 0.04 13.71 0.04 -6.20 -5.10 -0.02 0.02 7.39 0.00 0.00 -3.10 -0.01 0.01 9.76 0.00 -0.00 -7.05 -1.12 -4.03 6.43 -18.58 -7.16 -3.40 -0.01 0.01 14.63 -3.29 0.41 -2.10 -0.01 0.01 9.66 -2.15 0.19 -1.03 -0.35 0.79 -0.00 -0.00 0.00 -1.05 -2.14 1.66 1.75 34.76 13.80 -4.19 -0.71 1.47 -4.72 -2.38 -8.99 -3.79 -0.05 0.22 8.25 1.65 -5.12 2.80 7.18 9.09 9.52 -0.12 -0.73 14.84 0.13 -4.10 0.00 0.00 -0.00 16.06 -0.98 -5.09 0.00 0.02 0.00 0.31 -4.18 -0.50 -73.25 34.44 -49.53 0.00 0.00 0.00 -0.67 29.58 -0.53 25.58 -0.59 -0.69 3.50 -30.79 -141.13 24.78 -0.57 -0.67 1.25 -51.09 6.49 2.06 0.07 1.82 30.22 45.84 -42.03 1.01 -0.38 0.79 -0.01 -0.01 0.00 0.99 -2.16 1.67 -3.47 36.66 -12.13 4.17 -0.82 1.49 2.13 -1.52 8.84 3.79 -0.15 0.23 -8.55 1.71 5.30 8.93 -0.69 2.34 -5.45 -2.14 5.86 4.50 -0.14 0.03 -6.74 0.60 0.04 2.60 -0.08 0.02 -6.19 0.56 0.03 8.73 -0.20 0.06 -6.42 0.00 6.75 5.10 -0.15 0.03 -2.96 -0.00 0.00 3.10 -0.09 0.02 -8.37 -0.00 0.00 7.97 -0.55 -2.06 -3.91 -9.31 7.65 4.50 -0.14 0.03 -6.78 -0.65 -0.02 3.00 -0.09 0.02 -6.90 -0.62 -0.04 7.03 -1.33 -4.01 4.86 -13.24 12.75 3.40 -0.10 0.02 -12.21 -2.79 -0.29 2.10 -0.06 0.01 -10.14 -2.25 -0.21 0.00 -11.87 1.82 -0.00 -0.00 -0.00 -8.70 -7.18 -1.32 -8.00 -0.11 -8.69 0.00 -37.30 0.16 -0.03 27.33 -0.24 0.00 -39.87 -3.21 0.00 -0.00 -0.00 0.00 0.00 0.00 13.54 -13.29 1.58 8.70 -7.18 -1.32 -1.67 -2.94 -4.51 0.00 -37.20 0.26 0.01 24.45 0.08 0.00 -39.87 -3.21 -0.00 0.02 0.00 0.00 0.00 0.00 -6.00 -14.12 -0.30
5.47 -0.00 -0.71 0.00 0.00 0.00 0.00 88.13 0.00 2.72 -12.36 5.00 0.00 2.52 -2.92 -0.64 12.57 -0.45 0.00 10.88 2.19 -0.69 12.57 -0.39 0.00 10.37 -4.28 2.39 7.47 -0.58 0.00 18.40 -1.78 2.39 7.47 -0.58 0.00 12.77 3.30 0.94 5.64 -0.31 0.00 6.35 3.19 -5.28 -43.59 -3.19 0.00 19.88 4.10 0.00 -0.00 -0.00 3.40 7.01 8.59 0.00 0.01 0.00 -3.30 6.99 8.69 0.00 0.00 -0.00 0.00 5.05 2.27 0.00 -0.00 0.00 0.00 -8.86 6.08 -0.00 0.00 -0.00 0.10 -6.14 2.92 0.00 0.00 -0.00 0.10 -6.14 2.92 -0.00 -0.00 0.00 0.00 -0.13 -1.74 -0.00 -0.00 -0.01 0.01 0.78 2.48 0.00 0.00 -0.00 0.02 -0.48 2.15 0.00 -0.00 0.00 0.00 -0.18 0.48 -0.00 -0.00 0.00 0.20 -0.10 -0.02 -0.00 -0.00 -0.00 -0.20 -0.10 -0.02 0.00 0.00 0.00 0.20 -0.10 -0.02 -0.00 0.00 -0.00 -0.20 -0.10 -0.02 0.01 -0.00 0.00 0.20 -0.09 -0.02 0.00 -0.00 -0.00 -0.20 -0.10 -0.02 0.00 -0.00 -0.00 -0.20 -0.10 0.04 0.00 0.01 0.00 0.20 -0.09 0.03 -0.01 -0.00 -0.00 -2.80 7.18 9.09 -15.57 -2.32 8.31 -16.06 -0.97 -5.10 -0.00 0.00 -0.00 -0.37 -4.12 -0.50 65.45 34.11 53.30 0.00 0.00 0.00 0.40 17.69 0.45 -25.58 -0.72 -0.67 -20.64 -36.51 138.78 -24.78 -0.70 -0.65 -3.91 -72.59 -10.65 -1.98 -0.27 1.89 -70.35 43.22 68.00 -8.95 -0.46 2.32 9.05 -4.39 -9.41 -4.50 -0.02 0.02 12.38 1.07 -0.13 -2.60 -0.01 0.01 7.84 0.71 -0.05 -7.97 -0.33 -2.09 13.39 -12.01 -4.95 -4.50 -0.02 0.02 8.38 -0.77 0.11 -3.00 -0.01 0.01 8.55 -0.77 0.04 -8.73 0.03 0.04 13.54 0.04 -6.23 -5.10 -0.02 0.02 7.35 0.00 0.00 -3.10 -0.01 0.01 9.72 0.00 -0.00 -7.05 -1.12 -4.03 6.33 -18.56 -7.21 -3.40 -0.01 0.01 14.60 -3.28 0.41 -2.10 -0.01 0.01 9.64 -2.14 0.19 -1.03 -0.35 0.79 -0.00 -0.00 0.00 -1.05 -2.14 1.66 1.73 34.73 13.83 -4.19 -0.71 1.47 -4.74 -2.38 -8.97 -3.79 -0.05 0.22 8.26 1.65 -5.12 2.80 7.18 9.09 9.74 -0.14 -0.83 14.84 0.13 -4.10 0.00 0.00 -0.00 16.06 -0.98 -5.09 0.00 0.02 0.00 0.31 -4.18 -0.50 -73.48 34.34 -49.57 0.00 0.00 0.00 -0.67 29.58 -0.53 25.58 -0.59 -0.69 3.52 -30.81 -141.21 24.78 -0.57 -0.67 1.25 -51.09 6.49 2.06 0.07 1.82 30.17 45.84 -41.89 1.01 -0.38 0.79 -0.01 -0.01 0.00 0.99 -2.16 1.67 -3.46 36.71 -12.14 4.17 -0.82 1.49 2.07 -1.50 8.83 3.79 -0.15 0.23 -8.60 1.71 5.33 8.93 -0.69 2.34 -5.51 -2.12 5.86 4.50 -0.14 0.03 -6.79 0.61 0.04 2.60 -0.08 0.02 -6.24 0.56 0.03 8.73 -0.20 0.06 -6.44 0.00 6.75 5.10 -0.15 0.03 -2.98 -0.00 0.00 3.10 -0.09 0.02 -8.40 -0.00 0.00 7.97 -0.55 -2.06 -3.92 -9.30 7.65 4.50 -0.14 0.03 -6.79 -0.65 -0.02 3.00 -0.09 0.02 -6.91 -0.62 -0.04 7.03 -1.33 -4.01 4.87 -13.23 12.73 3.40 -0.10 0.02 -12.22 -2.79 -0.29 2.10 -0.06 0.01 -10.14 -2.25 -0.21 0.00 -11.87 1.82 -0.00 -0.00 -0.00 -8.70 -7.18 -1.32 -8.10 -0.04 -8.73 0.00 -37.30 0.16 -0.03 27.27 -0.25 0.00 -39.87 -3.21 0.00 -0.00 -0.00 0.00 0.00 0.00 13.63 -13.17 1.60 8.70 -7.18 -1.32 -1.71 -2.87 -4.49 0.00 -37.20 0.26 0.01 24.33 0.08 0.00 -39.87 -3.21 -0.00 0.02 0.00 0.00 0.00 0.00 -6.01 -14.08 -0.35
